<svg xmlns="http://www.w3.org/2000/svg" viewBox="0 0 512 512" width="512" height="512">
  <defs>
    <clipPath id="ct-sq"><rect width="512" height="512" rx="118"></rect></clipPath>
    <linearGradient id="ct-bg" x1="0" y1="0" x2="1" y2="1">
      <stop offset="0" stop-color="#111119"></stop><stop offset="1" stop-color="#09090b"></stop>
    </linearGradient>
    <radialGradient id="ct-glow" cx="0.5" cy="0.16" r="0.85">
      <stop offset="0" stop-color="#d4af37" stop-opacity="0.14"></stop><stop offset="1" stop-color="#d4af37" stop-opacity="0"></stop>
    </radialGradient>
  </defs>
  <g clip-path="url(#ct-sq)">
    <rect width="512" height="512" fill="url(#ct-bg)"></rect>
    <rect width="512" height="512" fill="url(#ct-glow)"></rect>
    
    <g transform="rotate(-17 256 452)">
      <rect x="181" y="128" width="150" height="218" rx="16" fill="#1D9E74" stroke="#136B4E" stroke-width="4"></rect>
      <rect x="199" y="150" width="114" height="86" rx="8" fill="#000000" opacity="0.16"></rect>
      <rect x="199" y="252" width="114" height="10" rx="5" fill="#000000" opacity="0.14"></rect>
      <rect x="199" y="272" width="80" height="10" rx="5" fill="#000000" opacity="0.14"></rect>
    </g>
    
    <g transform="rotate(17 256 452)">
      <rect x="181" y="128" width="150" height="218" rx="16" fill="#BC5A84" stroke="#87405F" stroke-width="4"></rect>
      <rect x="199" y="150" width="114" height="86" rx="8" fill="#000000" opacity="0.16"></rect>
      <rect x="199" y="252" width="114" height="10" rx="5" fill="#000000" opacity="0.14"></rect>
      <rect x="199" y="272" width="80" height="10" rx="5" fill="#000000" opacity="0.14"></rect>
    </g>
    
    <g>
      <rect x="181" y="112" width="150" height="218" rx="16" fill="#FDE68A" stroke="#D4AF37" stroke-width="5"></rect>
      <rect x="199" y="134" width="114" height="86" rx="8" fill="#000000" opacity="0.14"></rect>
      <polyline points="205,296 237,272 265,284 307,240" fill="none" stroke="#1E2430" stroke-width="12" stroke-linecap="round" stroke-linejoin="round"></polyline>
      <circle cx="307" cy="240" r="10" fill="#1E2430"></circle>
    </g>
  </g>
  <rect x="1.5" y="1.5" width="509" height="509" rx="117" fill="none" stroke="#ffffff" stroke-opacity="0.1" stroke-width="3"></rect>
</svg>